<?xml version="1.0" encoding="UTF-8" standalone="no"?>
<!-- Created with Inkscape (http://www.inkscape.org/) -->

<svg
   xmlns:dc="http://purl.org/dc/elements/1.1/"
   xmlns:cc="http://creativecommons.org/ns#"
   xmlns:rdf="http://www.w3.org/1999/02/22-rdf-syntax-ns#"
   xmlns:svg="http://www.w3.org/2000/svg"
   xmlns="http://www.w3.org/2000/svg"
   xmlns:sodipodi="http://sodipodi.sourceforge.net/DTD/sodipodi-0.dtd"
   xmlns:inkscape="http://www.inkscape.org/namespaces/inkscape"
   width="744.09448819"
   height="1052.3622047"
   id="svg2"
   version="1.1"
   inkscape:version="0.48.2 r9819"
   sodipodi:docname="affiche_mer.svg">
  <defs
     id="defs4" />
  <sodipodi:namedview
     id="base"
     pagecolor="#ffffff"
     bordercolor="#666666"
     borderopacity="1.0"
     inkscape:pageopacity="0.0"
     inkscape:pageshadow="2"
     inkscape:zoom="0.35"
     inkscape:cx="537.22468"
     inkscape:cy="548.87584"
     inkscape:document-units="px"
     inkscape:current-layer="layer1"
     showgrid="false"
     inkscape:window-width="1280"
     inkscape:window-height="648"
     inkscape:window-x="0"
     inkscape:window-y="30"
     inkscape:window-maximized="1" />
  <metadata
     id="metadata7">
    <rdf:RDF>
      <cc:Work
         rdf:about="">
        <dc:format>image/svg+xml</dc:format>
        <dc:type
           rdf:resource="http://purl.org/dc/dcmitype/StillImage" />
        <dc:title></dc:title>
      </cc:Work>
    </rdf:RDF>
  </metadata>
  <g
     inkscape:label="Layer 1"
     inkscape:groupmode="layer"
     id="layer1">
    <flowRoot
       xml:space="preserve"
       id="flowRoot2985"
       style="fill:black;stroke:none;stroke-opacity:1;stroke-width:1px;stroke-linejoin:miter;stroke-linecap:butt;fill-opacity:1;font-family:Sans;font-style:normal;font-weight:normal;font-size:10px;line-height:125%;letter-spacing:0px;word-spacing:0px"><flowRegion
         id="flowRegion2987"><rect
           id="rect2989"
           width="745.71429"
           height="1048.5714"
           x="-2.8571429"
           y="6.6478968" /></flowRegion><flowPara
         id="flowPara2991" /></flowRoot>    <flowRoot
       xml:space="preserve"
       id="flowRoot3015"
       style="fill:black;stroke:none;stroke-opacity:1;stroke-width:1px;stroke-linejoin:miter;stroke-linecap:butt;fill-opacity:1;font-family:Sans;font-style:normal;font-weight:normal;font-size:10px;line-height:125%;letter-spacing:0px;word-spacing:0px"><flowRegion
         id="flowRegion3017"><rect
           id="rect3019"
           width="45.714287"
           height="502.85715"
           x="3348.5715"
           y="11646.647" /></flowRegion><flowPara
         id="flowPara3021" /></flowRoot>    <flowRoot
       xml:space="preserve"
       id="flowRoot3002"
       style="fill:black;stroke:none;stroke-opacity:1;stroke-width:1px;stroke-linejoin:miter;stroke-linecap:butt;fill-opacity:1;font-family:Sans;font-style:normal;font-weight:normal;font-size:40px;line-height:125%;letter-spacing:0px;word-spacing:0px"><flowRegion
         id="flowRegion3004"><rect
           id="rect3006"
           width="677.14288"
           height="954.28571"
           x="34.285713"
           y="38.076469" /></flowRegion><flowPara
         id="flowPara3008" /></flowRoot>    <g
       transform="matrix(1.5425784,0,0,1.5425784,21.322721,3.2461971)"
       style="font-size:40px;font-style:normal;font-weight:normal;line-height:125%;letter-spacing:0px;word-spacing:0px;fill:none;stroke:#000000;font-family:Sans"
       id="flowRoot3010">
      <path
         d="m 38.408711,61.053203 -3.617898,3.617898 0,26.599194 3.617898,3.617898 6.777189,4.127461 8.203966,0 7.082927,-4.127461 3.617899,-3.617898 -0.05096,-26.497281 -3.617898,-3.617898 -3.566942,3.617898 0.05096,25.019548 -3.515986,1.987296 -8.203966,0 -3.210247,-1.93634 0,-25.172417 -3.566942,-3.617898"
         style="font-size:50.95631027px;text-align:start;text-anchor:start;fill:none;stroke:#000000;font-family:logo-bold;-inkscape-font-specification:logo-bold"
         id="path3183"
         inkscape:connector-curvature="0" />
      <path
         d="m 85.280555,81.690509 3.617898,-3.566942 2.038252,-3.566942 0,-4.076505 -2.038252,-3.566941 -3.617898,-3.566942 -3.515986,-2.038252 -13.707247,0 -3.566942,3.566941 0.101913,15.184981 -0.101913,0.101912 0.101913,0.101913 0.101912,15.083068 3.617898,3.617898 3.566942,-3.617898 -0.05096,-11.618039 13.452466,-2.038252 m -13.503423,-5.146588 -0.101912,-8.051097 10.089349,0 1.222952,0.713389 0.764344,1.273907 0,4.076505 -0.764344,1.273908 -1.222952,0.713388 -9.987437,0"
         style="font-size:50.95631027px;text-align:start;text-anchor:start;fill:none;stroke:#000000;font-family:logo-bold;-inkscape-font-specification:logo-bold"
         id="path3185"
         inkscape:connector-curvature="0" />
      <path
         d="m 130.36495,81.690509 3.6179,-3.566942 2.03825,-3.566942 0,-4.076505 -2.03825,-3.566941 -3.6179,-3.566942 -3.51599,-2.038252 -13.70724,0 -3.56695,3.566941 0.10192,15.184981 -0.10192,0.101912 0.10192,0.101913 0.10191,15.083068 3.6179,3.617898 3.56694,-3.617898 -0.051,-11.618039 13.45247,-2.038252 m -13.50342,-5.146588 -0.10192,-8.051097 10.08935,0 1.22296,0.713389 0.76434,1.273907 0,4.076505 -0.76434,1.273908 -1.22296,0.713388 -9.98743,0"
         style="font-size:50.95631027px;text-align:start;text-anchor:start;fill:none;stroke:#000000;font-family:logo-bold;-inkscape-font-specification:logo-bold"
         id="path3187"
         inkscape:connector-curvature="0" />
      <path
         d="m 163.74929,64.82397 -3.6179,-3.617898 -19.61818,0 -3.61789,3.617898 0,30.573786 3.61789,3.566942 19.61818,0 3.6179,-3.566942 -3.6179,-3.617898 -16.05123,0 0,-23.33799 16.05123,0 3.6179,-3.617898 m -26.85397,15.235937 3.61789,3.566941 13.55438,0 3.6179,-3.566941 -3.6179,-3.617898 -13.55438,0 -3.61789,3.617898"
         style="font-size:50.95631027px;text-align:start;text-anchor:start;fill:none;stroke:#000000;font-family:logo-bold;-inkscape-font-specification:logo-bold"
         id="path3189"
         inkscape:connector-curvature="0" />
      <path
         d="m 167.7828,99.015654 3.56694,-3.566942 0,-19.363397 12.43334,19.363397 3.56694,3.617898 3.6179,-3.617898 0,-30.573786 -3.6179,-3.617898 -3.56694,3.617898 0,19.312442 -12.43334,-19.363398 -3.56694,-3.566942 -3.6179,3.566942 0,30.624742 3.6179,3.566942"
         style="font-size:50.95631027px;text-align:start;text-anchor:start;fill:none;stroke:#000000;font-family:logo-bold;-inkscape-font-specification:logo-bold"
         id="path3191"
         inkscape:connector-curvature="0" />
      <path
         d="m 212.96911,99.015654 8.05109,0 7.08293,-4.127461 3.6179,-3.566942 4.0765,-7.082927 0,-8.203966 -4.0765,-7.082927 -3.6179,-3.617898 -7.08293,-4.076505 -8.20396,0 -3.6179,3.566942 0,30.726655 3.6179,3.617898 0.15287,-0.152869 m 3.46503,-7.235796 0,-23.33799 4.58606,0 4.7899,2.751641 2.80259,4.840849 0,8.203966 -2.80259,4.789893 -4.7899,2.751641 -4.58606,0"
         style="font-size:50.95631027px;text-align:start;text-anchor:start;fill:none;stroke:#000000;font-family:logo-bold;-inkscape-font-specification:logo-bold"
         id="path3193"
         inkscape:connector-curvature="0" />
      <path
         d="m 259.20162,99.015654 7.08292,-4.076505 3.6179,-3.617898 4.07651,-7.082927 0,-8.203966 -4.07651,-7.082927 -3.6179,-3.617898 -7.08292,-4.076505 -8.20397,0 -7.08293,4.076505 -3.6179,3.617898 -4.0765,7.082927 0,8.203966 4.0765,7.082927 3.6179,3.617898 7.08293,4.076505 8.20397,0 m 0,-7.18484 -8.20397,0 -4.78989,-2.802597 -2.8026,-4.789893 0,-8.203966 2.8026,-4.789893 4.78989,-2.802597 8.20397,0 4.78989,2.802597 2.8026,4.789893 0,8.203966 -2.8026,4.789893 -4.78989,2.802597"
         style="font-size:50.95631027px;text-align:start;text-anchor:start;fill:none;stroke:#000000;font-family:logo-bold;-inkscape-font-specification:logo-bold"
         id="path3195"
         inkscape:connector-curvature="0" />
      <path
         d="m 317.34276,61.307985 -3.56694,3.617898 -5.96189,19.312441 -6.62432,-19.312441 -3.56694,-3.617898 -3.6179,3.617898 -6.16572,19.974873 -6.21667,-19.974873 -3.56694,-3.617898 -3.6179,3.617898 9.83457,31.592912 3.56694,3.617895 3.6179,-3.617895 6.31858,-20.535393 6.67528,19.363398 3.56694,3.617898 3.6179,-3.617898 9.32501,-30.420917 -3.6179,-3.617898"
         style="font-size:50.95631027px;text-align:start;text-anchor:start;fill:none;stroke:#000000;font-family:logo-bold;-inkscape-font-specification:logo-bold"
         id="path3197"
         inkscape:connector-curvature="0" />
      <path
         d="m 325.0308,99.015654 3.56694,-3.566942 0,-19.363397 12.43334,19.363397 3.56694,3.617898 3.6179,-3.617898 0,-30.573786 -3.6179,-3.617898 -3.56694,3.617898 0,19.312442 -12.43334,-19.363398 -3.56694,-3.566942 -3.6179,3.566942 0,30.624742 3.6179,3.566942"
         style="font-size:50.95631027px;text-align:start;text-anchor:start;fill:none;stroke:#000000;font-family:logo-bold;-inkscape-font-specification:logo-bold"
         id="path3199"
         inkscape:connector-curvature="0" />
      <path
         d="m 55.224294,145.3859 3.617898,-3.56694 2.038252,-3.56695 0,-4.0765 -2.038252,-3.56694 -3.617898,-3.56694 -3.515986,-2.03826 -13.707247,0 -3.566942,3.56695 0.101913,15.18498 -0.101913,0.10191 0.101913,0.10191 0.101912,15.08307 3.617898,3.6179 3.566942,-3.6179 -0.05096,-11.61804 13.452466,-2.03825 m -13.503423,-5.14659 -0.101912,-8.0511 10.089349,0 1.222952,0.71339 0.764344,1.27391 0,4.0765 -0.764344,1.27391 -1.222952,0.71339 -9.987437,0"
         style="font-size:50.95631027px;text-align:start;text-anchor:start;fill:none;stroke:#000000;font-family:logo-bold;-inkscape-font-specification:logo-bold"
         id="path3201"
         inkscape:connector-curvature="0" />
      <path
         d="m 75.156173,140.23931 -3.617898,3.6179 9.834568,15.28689 3.566942,3.6179 3.617898,-3.6179 -9.834568,-15.28689 -3.566942,-3.6179 m 7.388665,5.14659 3.617898,-3.56694 2.038253,-3.56695 0,-4.0765 -2.038253,-3.56694 -3.617898,-3.56694 -3.515985,-2.03826 -13.707248,0 -3.566941,3.56695 0,30.57378 3.566941,3.6179 3.617898,-3.6179 0,-11.71995 13.605335,-2.03825 m -13.605335,-5.14659 0,-8.0511 10.08935,0 1.222951,0.71339 0.764345,1.27391 0,4.0765 -0.764345,1.27391 -1.222951,0.71339 -10.08935,0 m -7.184839,18.75192 3.566941,3.6179 3.617898,-3.6179 -3.617898,-3.6179 -3.566941,3.6179"
         style="font-size:50.95631027px;text-align:start;text-anchor:start;fill:none;stroke:#000000;font-family:logo-bold;-inkscape-font-specification:logo-bold"
         id="path3203"
         inkscape:connector-curvature="0" />
      <path
         d="m 92.64215,162.71104 3.566942,-3.6179 0,-30.62474 -3.566942,-3.56694 -3.617898,3.56694 0,30.62474 3.617898,3.6179"
         style="font-size:50.95631027px;text-align:start;text-anchor:start;fill:none;stroke:#000000;font-family:logo-bold;-inkscape-font-specification:logo-bold"
         id="path3205"
         inkscape:connector-curvature="0" />
      <path
         d="m 100.3055,162.71104 3.56694,-3.56694 0,-19.3634 12.43334,19.3634 3.56695,3.6179 3.61789,-3.6179 0,-30.57378 -3.61789,-3.6179 -3.56695,3.6179 0,19.31244 -12.43334,-19.3634 -3.56694,-3.56694 -3.617895,3.56694 0,30.62474 3.617895,3.56694"
         style="font-size:50.95631027px;text-align:start;text-anchor:start;fill:none;stroke:#000000;font-family:logo-bold;-inkscape-font-specification:logo-bold"
         id="path3207"
         inkscape:connector-curvature="0" />
      <path
         d="m 123.95719,128.41745 3.6179,3.61789 19.61818,0 3.6179,-3.61789 -3.6179,-3.6179 -19.61818,0 -3.6179,3.6179 m 13.40151,34.29359 3.56694,-3.6179 0,-30.67569 -3.56694,-3.6179 -3.6179,3.6179 0,30.67569 3.6179,3.6179"
         style="font-size:50.95631027px;text-align:start;text-anchor:start;fill:none;stroke:#000000;font-family:logo-bold;-inkscape-font-specification:logo-bold"
         id="path3209"
         inkscape:connector-curvature="0" />
      <path
         d="m 189.7808,145.3859 3.61789,-3.56694 2.03826,-3.56695 0,-4.0765 -2.03826,-3.56694 -3.61789,-3.56694 -3.51599,-2.03826 -13.70725,0 -3.56694,3.56695 0.10191,15.18498 -0.10191,0.10191 0.10191,0.10191 0.10192,15.08307 3.6179,3.6179 3.56694,-3.6179 -0.051,-11.61804 13.45247,-2.03825 m -13.50343,-5.14659 -0.10191,-8.0511 10.08935,0 1.22295,0.71339 0.76435,1.27391 0,4.0765 -0.76435,1.27391 -1.22295,0.71339 -9.98744,0"
         style="font-size:50.95631027px;text-align:start;text-anchor:start;fill:none;stroke:#000000;font-family:logo-bold;-inkscape-font-specification:logo-bold"
         id="path3211"
         inkscape:connector-curvature="0" />
      <path
         d="m 198.1456,162.71104 3.6179,-3.56694 7.49057,-20.68826 7.54154,20.68826 3.56694,3.56694 3.6179,-3.56694 -11.10848,-30.57378 -3.6179,-3.6179 -3.56694,3.6179 -11.15943,30.57378 3.6179,3.56694 m 21.50356,-15.49072 -3.6179,-3.61789 -13.55438,0 -3.56694,3.61789 3.56694,3.6179 13.55438,0 3.6179,-3.6179"
         style="font-size:50.95631027px;text-align:start;text-anchor:start;fill:none;stroke:#000000;font-family:logo-bold;-inkscape-font-specification:logo-bold"
         id="path3213"
         inkscape:connector-curvature="0" />
      <path
         d="m 236.08655,140.23931 -3.6179,3.6179 9.83457,15.28689 3.56694,3.6179 3.6179,-3.6179 -9.83457,-15.28689 -3.56694,-3.6179 m 7.38867,5.14659 3.61789,-3.56694 2.03826,-3.56695 0,-4.0765 -2.03826,-3.56694 -3.61789,-3.56694 -3.51599,-2.03826 -13.70725,0 -3.56694,3.56695 0,30.57378 3.56694,3.6179 3.6179,-3.6179 0,-11.71995 13.60534,-2.03825 m -13.60534,-5.14659 0,-8.0511 10.08935,0 1.22295,0.71339 0.76435,1.27391 0,4.0765 -0.76435,1.27391 -1.22295,0.71339 -10.08935,0 m -7.18484,18.75192 3.56694,3.6179 3.6179,-3.6179 -3.6179,-3.6179 -3.56694,3.6179"
         style="font-size:50.95631027px;text-align:start;text-anchor:start;fill:none;stroke:#000000;font-family:logo-bold;-inkscape-font-specification:logo-bold"
         id="path3215"
         inkscape:connector-curvature="0" />
      <path
         d="m 249.95463,128.41745 3.6179,3.61789 19.61818,0 3.6179,-3.61789 -3.6179,-3.6179 -19.61818,0 -3.6179,3.6179 m 13.40151,34.29359 3.56695,-3.6179 0,-30.67569 -3.56695,-3.6179 -3.61789,3.6179 0,30.67569 3.61789,3.6179"
         style="font-size:50.95631027px;text-align:start;text-anchor:start;fill:none;stroke:#000000;font-family:logo-bold;-inkscape-font-specification:logo-bold"
         id="path3217"
         inkscape:connector-curvature="0" />
      <path
         d="m 290.62574,162.60913 3.56694,-3.6179 0,-15.18498 -3.6179,-3.6179 -3.56694,3.6179 0,15.18498 3.6179,3.6179 m 9.83456,-37.75863 -3.61789,3.6179 -6.26763,9.73266 -6.16571,-9.6817 -3.56695,-3.56694 -3.61789,3.56694 9.78361,15.28689 3.56694,3.6179 3.6179,-3.6179 9.83457,-15.33785 -3.56695,-3.6179"
         style="font-size:50.95631027px;text-align:start;text-anchor:start;fill:none;stroke:#000000;font-family:logo-bold;-inkscape-font-specification:logo-bold"
         id="path3219"
         inkscape:connector-curvature="0" />
      <path
         d="m 48.121714,212.38751 -2.586579,-2.5412 -8.848821,0.0454 -0.6353,0.6353 2.586579,2.5412 8.848821,-0.0454 0.6353,-0.6353"
         style="font-size:45.37857056px;text-align:start;text-anchor:start;fill:none;stroke:#000000;font-family:Logo;-inkscape-font-specification:Logo"
         id="path3221"
         inkscape:connector-curvature="0" />
      <path
         d="m 37.049343,277.00658 0.6353,-0.6353 8.667307,-23.77837 7.94125,21.82709 2.586578,2.58658 0.6353,-0.6353 -9.892528,-27.22714 -2.586579,-2.5412 -0.6353,0.6353 -9.892528,27.18176 2.5412,2.58658 M 53.6579,265.7527 l -2.586579,-2.5412 -12.0707,0 -0.6353,0.6353 2.5412,2.5412 12.116079,0 0.6353,-0.6353"
         style="font-size:45.37857056px;text-align:start;text-anchor:start;fill:none;stroke:#000000;font-family:Logo;-inkscape-font-specification:Logo"
         id="path3223"
         inkscape:connector-curvature="0" />
      <path
         d="m 76.282662,260.62492 -2.5412,-2.5412 -0.6353,0.6353 0,15.70098 2.5412,2.5412 0.6353,-0.6353 0,-15.70098 m -16.109392,-2.5412 -0.6353,0.6353 0,9.98328 2.087414,3.63029 2.586579,2.58658 3.630285,2.08741 4.220207,0 3.630286,-2.08741 0.6353,-0.68068 -2.586579,-2.5412 -3.630285,2.08741 -4.174829,0 -2.042035,-1.13446 -1.134465,-2.04204 0,-9.98328 -2.586578,-2.5412"
         style="font-size:45.37857056px;text-align:start;text-anchor:start;fill:none;stroke:#000000;font-family:Logo;-inkscape-font-specification:Logo"
         id="path3225"
         inkscape:connector-curvature="0" />
      <path
         d="m 88.95321,276.37128 -2.586578,-2.58658 -2.042036,-1.17984 -1.179843,-1.99666 0,-16.9262 -2.586578,-2.58658 -0.6353,0.6353 0.04538,16.97158 2.132793,3.63029 2.586579,2.58658 3.630285,2.08741 0.6353,-0.6353 m -8.939578,-17.92453 2.5412,2.58658 4.220207,0 0.6353,-0.6353 -2.586579,-2.58658 -4.174828,0 -0.6353,0.6353"
         style="font-size:45.37857056px;text-align:start;text-anchor:start;fill:none;stroke:#000000;font-family:Logo;-inkscape-font-specification:Logo"
         id="path3227"
         inkscape:connector-curvature="0" />
      <path
         d="m 103.08154,273.7847 -4.220205,0 -1.996657,-1.17984 -1.179843,-2.04203 0,-4.17483 1.9059,-3.22188 3.221875,-1.9059 4.17483,0 2.04204,1.17984 1.13446,1.99666 0,4.22021 -1.86052,3.22187 -3.22188,1.9059 m 1.95128,3.22188 3.58491,-2.13279 0.68068,-0.68068 2.08741,-3.63028 0,-4.17483 -2.08741,-3.63029 -2.58658,-2.58658 -3.63029,-2.08741 -4.220205,0 -3.630285,2.08741 -0.6353,0.6353 -2.087415,3.63029 0,4.22021 2.087415,3.63028 2.586578,2.58658 3.630282,2.13279 4.22021,0"
         style="font-size:45.37857056px;text-align:start;text-anchor:start;fill:none;stroke:#000000;font-family:Logo;-inkscape-font-specification:Logo"
         id="path3229"
         inkscape:connector-curvature="0" />
      <path
         d="m 131.67643,260.62492 -2.5412,-2.5412 -0.6353,0.6353 0,15.70098 2.5412,2.5412 0.6353,-0.6353 0,-15.70098 m -16.10939,-2.5412 -0.6353,0.6353 0,9.98328 2.08741,3.63029 2.58658,2.58658 3.63028,2.08741 4.22021,0 3.63029,-2.08741 0.6353,-0.68068 -2.58658,-2.5412 -3.63029,2.08741 -4.17483,0 -2.04203,-1.13446 -1.13447,-2.04204 0,-9.98328 -2.58657,-2.5412"
         style="font-size:45.37857056px;text-align:start;text-anchor:start;fill:none;stroke:#000000;font-family:Logo;-inkscape-font-specification:Logo"
         id="path3231"
         inkscape:connector-curvature="0" />
      <path
         d="m 135.36202,274.42 2.5412,2.58658 0.68068,-0.6353 0,-15.70098 -2.58658,-2.58658 -0.6353,0.6353 0,15.70098 m 11.02699,-13.79508 -2.58658,-2.5412 -4.17483,0 -3.63028,2.08741 -0.68068,0.6353 2.58658,2.58658 3.63028,-2.13279 4.22021,0 0.6353,-0.6353"
         style="font-size:45.37857056px;text-align:start;text-anchor:start;fill:none;stroke:#000000;font-family:Logo;-inkscape-font-specification:Logo"
         id="path3233"
         inkscape:connector-curvature="0" />
      <path
         d="m 182.59543,249.05338 -2.58657,-2.5412 -0.6353,0.6353 0,27.27252 2.58657,2.5412 0.6353,-0.6353 0,-27.27252 m -0.0454,13.74971 -2.5412,-2.58658 -3.63029,-2.08741 -4.22021,0 -3.63028,2.08741 -0.6353,0.6353 -2.08742,3.63029 0,4.2202 2.08742,3.63029 2.58658,2.58658 3.63028,2.08741 4.17483,0 3.63029,-2.08741 0.6353,-0.68068 -2.5412,-2.5412 -3.63029,2.08741 -4.22021,0 -1.99665,-1.13446 -1.17985,-2.04204 0,-4.17482 1.86052,-3.22188 3.26726,-1.9059 4.17483,0 3.63029,2.13279 0.6353,-0.6353"
         style="font-size:45.37857056px;text-align:start;text-anchor:start;fill:none;stroke:#000000;font-family:Logo;-inkscape-font-specification:Logo"
         id="path3235"
         inkscape:connector-curvature="0" />
      <path
         d="m 189.36677,269.11071 15.0203,0 0.6353,-0.6353 0.0454,-2.08741 -2.08741,-3.63029 -2.58658,-2.58658 -3.63029,-2.08741 -4.2202,0 -3.63029,2.08741 -0.6353,0.6353 -2.08741,3.63029 0,4.22021 2.08741,3.63028 2.58658,2.58658 3.63028,2.08741 4.17483,0 3.63029,-2.08741 0.68068,-0.68068 -2.58658,-2.5412 -3.63029,2.08742 -4.2202,0 -1.99666,-1.13447 -1.17984,-2.04203 0,-1.45212 m 0.31765,-3.22188 1.58825,-2.72271 3.22187,-1.9059 4.17483,0 2.04204,1.17984 1.13446,1.99666 0,1.45211 -12.16145,0"
         style="font-size:45.37857056px;text-align:start;text-anchor:start;fill:none;stroke:#000000;font-family:Logo;-inkscape-font-specification:Logo"
         id="path3237"
         inkscape:connector-curvature="0" />
      <path
         d="m 227.1104,276.9612 0.6353,-0.6353 -0.0454,-27.13638 -2.5412,-2.58658 -0.6353,0.6353 0,27.18176 2.58658,2.5412"
         style="font-size:45.37857056px;text-align:start;text-anchor:start;fill:none;stroke:#000000;font-family:Logo;-inkscape-font-specification:Logo"
         id="path3239"
         inkscape:connector-curvature="0" />
      <path
         d="m 244.87114,274.46538 2.58658,2.58658 0.6353,-0.6353 0,-15.70098 -2.58658,-2.58658 -0.6353,0.6353 0,15.70098 m 3.1765,-0.27227 -2.5412,-2.5412 -3.63028,2.08742 -4.22021,0 -1.99666,-1.13447 -1.17984,-2.04203 0,-4.17483 1.86052,-3.22188 3.26726,-1.9059 4.17483,0 3.63028,2.13279 0.6353,-0.6353 -2.5412,-2.58658 -3.63028,-2.08741 -4.22021,0 -3.63028,2.08741 -0.6353,0.6353 -2.08742,3.63029 0,4.22021 2.08742,3.63028 2.58657,2.58658 3.63029,2.08741 4.17483,0 3.63028,-2.08741 0.6353,-0.68068"
         style="font-size:45.37857056px;text-align:start;text-anchor:start;fill:none;stroke:#000000;font-family:Logo;-inkscape-font-specification:Logo"
         id="path3241"
         inkscape:connector-curvature="0" />
      <path
         d="m 267.55263,286.17305 2.5412,2.58658 0.6353,-0.6353 0,-27.22714 -2.5412,-2.58658 -0.6353,0.6353 0,27.22714 m 0,-13.88584 2.58658,2.58658 3.63029,2.08741 4.17482,0 3.63029,-2.08741 0.68068,-0.68068 2.08741,-3.63028 0,-4.17483 -2.08741,-3.63029 -2.58658,-2.58658 -3.63029,-2.08741 -4.2202,0 -3.63029,2.08741 -0.6353,0.6353 2.58658,2.58658 3.63029,-2.13279 4.17482,0 2.04204,1.17984 1.13446,1.99666 0,4.22021 -1.86052,3.22187 -3.22188,1.86053 -4.2202,0 -3.63029,-2.08742 -0.6353,0.6353"
         style="font-size:45.37857056px;text-align:start;text-anchor:start;fill:none;stroke:#000000;font-family:Logo;-inkscape-font-specification:Logo"
         id="path3243"
         inkscape:connector-curvature="0" />
      <path
         d="m 287.98291,274.42 2.5412,2.58658 0.68068,-0.6353 0,-15.70098 -2.58658,-2.58658 -0.6353,0.6353 0,15.70098 m 11.027,-13.79508 -2.58658,-2.5412 -4.17483,0 -3.63029,2.08741 -0.68068,0.6353 2.58658,2.58658 3.63029,-2.13279 4.22021,0 0.6353,-0.6353"
         style="font-size:45.37857056px;text-align:start;text-anchor:start;fill:none;stroke:#000000;font-family:Logo;-inkscape-font-specification:Logo"
         id="path3245"
         inkscape:connector-curvature="0" />
      <path
         d="m 316.12967,274.46538 2.58658,2.58658 0.6353,-0.6353 0,-15.70098 -2.58658,-2.58658 -0.6353,0.6353 0,15.70098 m 3.1765,-0.27227 -2.5412,-2.5412 -3.63028,2.08742 -4.22021,0 -1.99666,-1.13447 -1.17984,-2.04203 0,-4.17483 1.86052,-3.22188 3.26726,-1.9059 4.17483,0 3.63028,2.13279 0.6353,-0.6353 -2.5412,-2.58658 -3.63028,-2.08741 -4.22021,0 -3.63028,2.08741 -0.6353,0.6353 -2.08742,3.63029 0,4.22021 2.08742,3.63028 2.58657,2.58658 3.63029,2.08741 4.17483,0 3.63028,-2.08741 0.6353,-0.68068"
         style="font-size:45.37857056px;text-align:start;text-anchor:start;fill:none;stroke:#000000;font-family:Logo;-inkscape-font-specification:Logo"
         id="path3247"
         inkscape:connector-curvature="0" />
      <path
         d="m 331.97674,276.37128 -2.58658,-2.58658 -2.04204,-1.17984 -1.17984,-1.99666 0,-16.9262 -2.58658,-2.58658 -0.6353,0.6353 0.0454,16.97158 2.13279,3.63029 2.58658,2.58658 3.63029,2.08741 0.6353,-0.6353 m -8.93958,-17.92453 2.5412,2.58658 4.2202,0 0.6353,-0.6353 -2.58657,-2.58658 -4.17483,0 -0.6353,0.6353"
         style="font-size:45.37857056px;text-align:start;text-anchor:start;fill:none;stroke:#000000;font-family:Logo;-inkscape-font-specification:Logo"
         id="path3249"
         inkscape:connector-curvature="0" />
      <path
         d="m 336.21253,246.73908 -0.6353,0.6353 0,4.2202 2.5412,2.5412 0.68068,-0.6353 0,-4.17482 -2.58658,-2.58658 m 1.9059,30.2675 0.6353,-0.6353 0,-15.74636 -2.58658,-2.58658 -0.6353,0.6353 0,15.74636 2.58658,2.58658"
         style="font-size:45.37857056px;text-align:start;text-anchor:start;fill:none;stroke:#000000;font-family:Logo;-inkscape-font-specification:Logo"
         id="path3251"
         inkscape:connector-curvature="0" />
      <path
         d="m 355.83594,286.17305 2.58658,2.58658 0.6353,-0.6353 0,-27.22714 -2.58658,-2.58658 -0.6353,0.6353 0,27.22714 m 3.1765,-11.97994 -2.5412,-2.5412 -3.63028,2.08742 -4.22021,0 -1.99666,-1.13447 -1.17984,-2.04203 0,-4.17483 1.86052,-3.22188 3.26726,-1.9059 4.17483,0 3.63028,2.13279 0.6353,-0.6353 -2.5412,-2.58658 -3.63028,-2.08741 -4.22021,0 -3.63029,2.08741 -0.6353,0.6353 -2.08741,3.63029 0,4.22021 2.08741,3.63028 2.58658,2.58658 3.63029,2.08741 4.17483,0 3.63028,-2.08741 0.6353,-0.68068"
         style="font-size:45.37857056px;text-align:start;text-anchor:start;fill:none;stroke:#000000;font-family:Logo;-inkscape-font-specification:Logo"
         id="path3253"
         inkscape:connector-curvature="0" />
      <path
         d="m 379.39733,260.62492 -2.5412,-2.5412 -0.6353,0.6353 0,15.70098 2.5412,2.5412 0.6353,-0.6353 0,-15.70098 m -16.10939,-2.5412 -0.6353,0.6353 0,9.98328 2.08741,3.63029 2.58658,2.58658 3.63029,2.08741 4.2202,0 3.63029,-2.08741 0.6353,-0.68068 -2.58658,-2.5412 -3.63029,2.08741 -4.17482,0 -2.04204,-1.13446 -1.13446,-2.04204 0,-9.98328 -2.58658,-2.5412"
         style="font-size:45.37857056px;text-align:start;text-anchor:start;fill:none;stroke:#000000;font-family:Logo;-inkscape-font-specification:Logo"
         id="path3255"
         inkscape:connector-curvature="0" />
      <path
         d="m 386.21406,269.11071 15.0203,0 0.6353,-0.6353 0.0454,-2.08741 -2.08741,-3.63029 -2.58658,-2.58658 -3.63029,-2.08741 -4.2202,0 -3.63029,2.08741 -0.6353,0.6353 -2.08741,3.63029 0,4.22021 2.08741,3.63028 2.58658,2.58658 3.63028,2.08741 4.17483,0 3.63029,-2.08741 0.68068,-0.68068 -2.58658,-2.5412 -3.63029,2.08742 -4.2202,0 -1.99666,-1.13447 -1.17984,-2.04203 0,-1.45212 m 0.31765,-3.22188 1.58825,-2.72271 3.22187,-1.9059 4.17483,0 2.04204,1.17984 1.13446,1.99666 0,1.45211 -12.16145,0"
         style="font-size:45.37857056px;text-align:start;text-anchor:start;fill:none;stroke:#000000;font-family:Logo;-inkscape-font-specification:Logo"
         id="path3257"
         inkscape:connector-curvature="0" />
      <path
         d="m 52.841085,330.91632 -2.586578,-2.5412 -3.630286,2.08741 -4.174828,0 -2.042036,-1.13446 -1.134464,-2.04204 0,-4.17483 1.860521,-3.22188 3.221879,-1.9059 4.220207,0 3.630285,2.1328 0.6353,-0.6353 -2.586578,-2.58658 -3.630286,-2.08741 -4.174828,0 -3.675665,2.08741 -0.6353,0.6353 -2.087414,3.63028 0,4.22021 2.087414,3.63029 2.586579,2.58658 3.630286,2.08741 4.220207,0 3.630285,-2.08741 0.6353,-0.68068"
         style="font-size:45.37857056px;text-align:start;text-anchor:start;fill:none;stroke:#000000;font-family:Logo;-inkscape-font-specification:Logo"
         id="path3259"
         inkscape:connector-curvature="0" />
      <path
         d="m 67.009126,330.50791 -4.220207,0 -1.996657,-1.17984 -1.179843,-2.04204 0,-4.17483 1.9059,-3.22188 3.221879,-1.9059 4.174828,0 2.042036,1.17985 1.134464,1.99665 0,4.22021 -1.860521,3.22188 -3.221879,1.9059 m 1.951279,3.22188 3.584907,-2.13279 0.680678,-0.68068 2.087414,-3.63029 0,-4.17483 -2.087414,-3.63028 -2.586578,-2.58658 -3.630286,-2.08741 -4.220207,0 -3.630286,2.08741 -0.6353,0.6353 -2.087414,3.63028 0,4.22021 2.087414,3.63029 2.586579,2.58658 3.630286,2.13279 4.220207,0"
         style="font-size:45.37857056px;text-align:start;text-anchor:start;fill:none;stroke:#000000;font-family:Logo;-inkscape-font-specification:Logo"
         id="path3261"
         inkscape:connector-curvature="0" />
      <path
         d="m 81.491271,333.68441 0.6353,-0.6353 -0.04538,-27.13638 -2.5412,-2.58658 -0.6353,0.6353 0,27.18176 2.586578,2.5412"
         style="font-size:45.37857056px;text-align:start;text-anchor:start;fill:none;stroke:#000000;font-family:Logo;-inkscape-font-specification:Logo"
         id="path3263"
         inkscape:connector-curvature="0" />
      <path
         d="m 88.315784,333.68441 0.6353,-0.6353 -0.04538,-27.13638 -2.5412,-2.58658 -0.6353,0.6353 0,27.18176 2.586579,2.5412"
         style="font-size:45.37857056px;text-align:start;text-anchor:start;fill:none;stroke:#000000;font-family:Logo;-inkscape-font-specification:Logo"
         id="path3265"
         inkscape:connector-curvature="0" />
      <path
         d="m 95.684835,325.83392 15.020305,0 0.6353,-0.6353 0.0454,-2.08742 -2.08741,-3.63028 -2.58658,-2.58658 -3.63029,-2.08741 -4.220205,0 -3.630285,2.08741 -0.6353,0.6353 -2.087415,3.63028 0,4.22021 2.087415,3.63029 2.586578,2.58658 3.630282,2.08741 4.17483,0 3.63029,-2.08741 0.68068,-0.68068 -2.58658,-2.5412 -3.63029,2.08741 -4.220205,0 -1.996657,-1.13446 -1.179843,-2.04204 0,-1.45211 m 0.31765,-3.22188 1.58825,-2.72272 3.221875,-1.9059 4.17483,0 2.04204,1.17985 1.13446,1.99665 0,1.45212 -12.161455,0"
         style="font-size:45.37857056px;text-align:start;text-anchor:start;fill:none;stroke:#000000;font-family:Logo;-inkscape-font-specification:Logo"
         id="path3267"
         inkscape:connector-curvature="0" />
      <path
         d="m 131.72181,330.91632 -2.58658,-2.5412 -3.63029,2.08741 -4.17483,0 -2.04203,-1.13446 -1.13447,-2.04204 0,-4.17483 1.86053,-3.22188 3.22187,-1.9059 4.22021,0 3.63029,2.1328 0.6353,-0.6353 -2.58658,-2.58658 -3.63029,-2.08741 -4.17483,0 -3.67566,2.08741 -0.6353,0.6353 -2.08741,3.63028 0,4.22021 2.08741,3.63029 2.58658,2.58658 3.63028,2.08741 4.22021,0 3.63029,-2.08741 0.6353,-0.68068"
         style="font-size:45.37857056px;text-align:start;text-anchor:start;fill:none;stroke:#000000;font-family:Logo;-inkscape-font-specification:Logo"
         id="path3269"
         inkscape:connector-curvature="0" />
      <path
         d="m 144.34697,333.09449 -2.58657,-2.58658 -2.04204,-1.17984 -1.17984,-1.99666 0,-16.92621 -2.58658,-2.58657 -0.6353,0.6353 0.0454,16.97158 2.13279,3.63029 2.58658,2.58657 3.63028,2.08742 0.6353,-0.6353 m -8.93957,-17.92454 2.5412,2.58658 4.2202,0 0.6353,-0.6353 -2.58658,-2.58658 -4.17482,0 -0.6353,0.6353"
         style="font-size:45.37857056px;text-align:start;text-anchor:start;fill:none;stroke:#000000;font-family:Logo;-inkscape-font-specification:Logo"
         id="path3271"
         inkscape:connector-curvature="0" />
      <path
         d="m 148.58278,303.46228 -0.6353,0.6353 0,4.22021 2.5412,2.5412 0.68068,-0.6353 0,-4.17483 -2.58658,-2.58658 m 1.9059,30.26751 0.6353,-0.6353 0,-15.74637 -2.58658,-2.58657 -0.6353,0.6353 0,15.74636 2.58658,2.58658"
         style="font-size:45.37857056px;text-align:start;text-anchor:start;fill:none;stroke:#000000;font-family:Logo;-inkscape-font-specification:Logo"
         id="path3273"
         inkscape:connector-curvature="0" />
      <path
         d="m 155.27328,314.76155 -0.6353,0.6353 6.71603,15.74636 2.58658,2.58658 0.6353,-0.6353 6.80678,-15.74637 -2.58657,-2.58657 -0.6353,0.6353 -5.58157,12.97827 -4.76475,-11.027 -2.5412,-2.58657"
         style="font-size:45.37857056px;text-align:start;text-anchor:start;fill:none;stroke:#000000;font-family:Logo;-inkscape-font-specification:Logo"
         id="path3275"
         inkscape:connector-curvature="0" />
      <path
         d="m 178.11075,325.83392 15.02031,0 0.6353,-0.6353 0.0454,-2.08742 -2.08741,-3.63028 -2.58658,-2.58658 -3.63029,-2.08741 -4.22021,0 -3.63028,2.08741 -0.6353,0.6353 -2.08742,3.63028 0,4.22021 2.08742,3.63029 2.58658,2.58658 3.63028,2.08741 4.17483,0 3.63029,-2.08741 0.68068,-0.68068 -2.58658,-2.5412 -3.63029,2.08741 -4.22021,0 -1.99665,-1.13446 -1.17985,-2.04204 0,-1.45211 m 0.31765,-3.22188 1.58825,-2.72272 3.22188,-1.9059 4.17483,0 2.04204,1.17985 1.13446,1.99665 0,1.45212 -12.16146,0"
         style="font-size:45.37857056px;text-align:start;text-anchor:start;fill:none;stroke:#000000;font-family:Logo;-inkscape-font-specification:Logo"
         id="path3277"
         inkscape:connector-curvature="0" />
      <path
         d="m 425.83531,379.24056 -2.32361,-2.28285 -7.94918,0.0408 -0.57071,0.57071 2.32361,2.28284 7.94918,-0.0408 0.57071,-0.57071"
         style="font-size:40.76504898px;text-align:end;text-anchor:end;fill:none;stroke:#000000;font-family:Logo;-inkscape-font-specification:Logo"
         id="path3279"
         inkscape:connector-curvature="0" />
      <path
         d="m 50.954155,424.57128 -2.323608,-2.32361 -3.261204,1.87519 -3.750384,0 -1.834427,-1.05989 -1.019127,-1.79366 0,-3.75038 1.671367,-2.89432 2.894319,-1.67137 3.791149,0 1.793663,1.01913 1.059891,1.83442 2.282843,2.28285 0.57071,-0.57071 -1.875192,-3.26121 -2.323608,-2.32361 -3.261204,-1.87519 -3.750384,0 -3.261204,1.87519 -0.611476,0.57071 -1.875192,3.30197 0,3.75039 1.875192,3.17967 2.323608,2.32361 3.261204,1.95672 3.791149,0 3.261204,-1.87519 0.570711,-0.57071 m -13.207876,-1.83443 2.323608,2.32361 3.261204,-1.91596 3.791149,0 1.793663,1.05989 1.059891,1.79367 0,3.79115 -1.712132,2.89431 -2.894319,1.67137 -3.750384,0 -1.834427,-1.01913 -1.019127,-1.83442 -2.323607,-2.28285 -0.570711,0.57072 1.875192,3.2612 2.323608,2.32361 3.261204,1.87519 3.791149,0 3.261204,-1.87519 0.570711,-0.61148 1.875192,-3.2612 0,-3.75039 -1.875192,-3.2612 -2.323608,-2.32361 -3.261204,-1.87519 -3.750384,0 -3.261204,1.87519 -0.611476,0.57071"
         style="font-size:40.76504898px;text-align:start;text-anchor:start;fill:none;stroke:#000000;font-family:Logo;-inkscape-font-specification:Logo"
         id="path3281"
         inkscape:connector-curvature="0" />
      <path
         d="m 57.230061,437.28997 0.570711,-0.57071 7.786124,-21.36088 7.133884,19.60799 2.323607,2.3236 0.570711,-0.57071 -8.886781,-24.45903 -2.323607,-2.28284 -0.570711,0.57071 -8.886781,24.41827 2.282843,2.3236 m 14.920008,-10.10973 -2.323608,-2.28284 -10.843503,0 -0.570711,0.57071 2.282843,2.28284 10.884268,0 0.570711,-0.57071"
         style="font-size:40.76504898px;text-align:start;text-anchor:start;fill:none;stroke:#000000;font-family:Logo;-inkscape-font-specification:Logo"
         id="path3283"
         inkscape:connector-curvature="0" />
      <path
         d="m 78.003039,409.93663 -0.570711,0.57071 0,24.45903 2.323608,2.3236 15.694544,0 0.611475,-0.57071 -2.323607,-2.3236 -13.411701,0 0,-22.17619 -2.323608,-2.28284"
         style="font-size:40.76504898px;text-align:start;text-anchor:start;fill:none;stroke:#000000;font-family:Logo;-inkscape-font-specification:Logo"
         id="path3285"
         inkscape:connector-curvature="0" />
      <path
         d="m 99.818709,409.93663 -0.570711,0.57071 0,24.45903 2.323612,2.3236 15.69454,0 0.61148,-0.57071 -2.32361,-2.3236 -13.4117,0 0,-22.17619 -2.323611,-2.28284"
         style="font-size:40.76504898px;text-align:start;text-anchor:start;fill:none;stroke:#000000;font-family:Logo;-inkscape-font-specification:Logo"
         id="path3287"
         inkscape:connector-curvature="0" />
      <path
         d="m 139.6933,412.21947 -2.32361,-2.28284 -15.73531,0 -0.57071,0.57071 0,24.41826 2.32361,2.32361 15.69454,0 0.61148,-0.57071 -2.32361,-2.32361 -13.4117,0 0,-21.56471 15.12383,0 0.61148,-0.57071 m -18.62963,10.47662 2.32361,2.28284 10.8435,0 0.57071,-0.57071 -2.28284,-2.32361 -10.88427,0 -0.57071,0.61148"
         style="font-size:40.76504898px;text-align:start;text-anchor:start;fill:none;stroke:#000000;font-family:Logo;-inkscape-font-specification:Logo"
         id="path3289"
         inkscape:connector-curvature="0" />
      <path
         d="m 159.53632,437.24921 6.44088,0 5.66634,-3.2612 0.57071,-0.57072 3.30197,-5.66634 0,-6.56317 -3.30197,-5.66634 -2.28284,-2.32361 -5.70711,-3.2612 -6.52241,0 -0.57071,0.57071 0,24.58132 2.28284,2.28284 0.1223,-0.12229 m 0.44841,-2.85355 0,-21.56472 5.99247,0 4.1988,2.40514 2.4459,4.23957 0,6.52241 -3.05738,5.34022 -5.34022,3.05738 -4.23957,0"
         style="font-size:40.76504898px;text-align:start;text-anchor:start;fill:none;stroke:#000000;font-family:Logo;-inkscape-font-specification:Logo"
         id="path3291"
         inkscape:connector-curvature="0" />
      <path
         d="m 202.75938,415.48067 -2.28284,-2.3236 -5.70711,-3.26121 -6.52241,0 -5.66634,3.26121 -0.61148,0.61147 -3.2612,5.66634 0,6.52241 3.2612,5.70711 2.32361,2.28284 5.66634,3.30197 6.56318,0 5.66634,-3.30197 0.57071,-0.57071 0,-6.56317 -2.28284,-2.28285 -10.80274,0 -0.57071,0.57071 2.28284,2.32361 8.47913,0 0,3.99498 -5.09563,2.93508 -6.52241,0 -4.23956,-2.4459 -2.40514,-4.1988 0,-6.56318 3.05738,-5.29945 5.29945,-3.05738 6.56318,0 5.66634,3.2612 0.57071,-0.57071"
         style="font-size:40.76504898px;text-align:start;text-anchor:start;fill:none;stroke:#000000;font-family:Logo;-inkscape-font-specification:Logo"
         id="path3293"
         inkscape:connector-curvature="0" />
      <path
         d="m 219.55138,437.08615 0,-14.47159 -2.28284,-2.28285 -0.61147,0.57071 -10.59892,16.75444 2.28285,2.32361 8.31607,0 0,5.38098 2.3236,2.32361 0.57071,-0.57071 0,-7.13388 2.85356,0 0.57071,-0.57071 -2.28284,-2.32361 -1.14143,0 m -2.89431,0 -6.27782,0 6.27782,-9.90591 0,9.90591 m 0,-16.22449 2.3236,2.32361 0.57071,-0.57071 -2.3236,-2.32361 -0.57071,0.57071"
         style="font-size:40.76504898px;text-align:start;text-anchor:start;fill:none;stroke:#000000;font-family:Logo;-inkscape-font-specification:Logo"
         id="path3295"
         inkscape:connector-curvature="0" />
      <path
         d="m 46.71459,481.15315 -2.323608,-2.28284 -7.949184,0.0408 -0.570711,0.57071 2.323608,2.28284 7.949184,-0.0408 0.570711,-0.57072"
         style="font-size:40.76504898px;text-align:start;text-anchor:start;fill:none;stroke:#000000;font-family:Logo;-inkscape-font-specification:Logo"
         id="path3297"
         inkscape:connector-curvature="0" />
      <path
         d="m 50.954155,526.48388 -2.323608,-2.32361 -3.261204,1.87519 -3.750384,0 -1.834427,-1.05989 -1.019127,-1.79366 0,-3.75039 1.671367,-2.89432 2.894319,-1.67136 3.791149,0 1.793663,1.01912 1.059891,1.83443 2.282843,2.28284 0.57071,-0.57071 -1.875192,-3.2612 -2.323608,-2.32361 -3.261204,-1.87519 -3.750384,0 -3.261204,1.87519 -0.611476,0.57071 -1.875192,3.30197 0,3.75039 1.875192,3.17967 2.323608,2.32361 3.261204,1.95672 3.791149,0 3.261204,-1.87519 0.570711,-0.57071 m -13.207876,-1.83443 2.323608,2.32361 3.261204,-1.91596 3.791149,0 1.793663,1.05989 1.059891,1.79366 0,3.79115 -1.712132,2.89432 -2.894319,1.67137 -3.750384,0 -1.834427,-1.01913 -1.019127,-1.83443 -2.323607,-2.28284 -0.570711,0.57071 1.875192,3.26121 2.323608,2.3236 3.261204,1.8752 3.791149,0 3.261204,-1.8752 0.570711,-0.61147 1.875192,-3.26121 0,-3.75038 -1.875192,-3.2612 -2.323608,-2.32361 -3.261204,-1.87519 -3.750384,0 -3.261204,1.87519 -0.611476,0.57071"
         style="font-size:40.76504898px;text-align:start;text-anchor:start;fill:none;stroke:#000000;font-family:Logo;-inkscape-font-specification:Logo"
         id="path3299"
         inkscape:connector-curvature="0" />
      <path
         d="m 65.586896,512.01228 -0.611476,0.57071 -1.671367,2.89432 -2.894318,1.67137 -0.570711,0.61148 2.323608,2.28284 3.261204,-1.87519 0.57071,-0.57071 1.875193,-3.26121 -2.282843,-2.32361 m -6.400113,20.09717 13.493231,0 0.570711,-0.57071 0.04076,-1.87519 -1.875192,-3.2612 -2.323608,-2.32361 -3.261204,-1.87519 -3.791149,0 -3.261204,1.87519 -0.570711,0.57071 -1.875192,3.2612 0,3.79115 1.875192,3.26121 2.323608,2.3236 3.261204,1.8752 3.750384,0 3.261204,-1.8752 0.611476,-0.61147 -2.323608,-2.28284 -3.261204,1.87519 -3.791149,0 -1.793662,-1.01913 -1.059892,-1.83443 0,-1.30448 m 0.285356,-2.89432 1.426776,-2.4459 2.894319,-1.71213 3.750384,0 1.834428,1.05989 1.019126,1.79366 0,1.30448 -10.925033,0"
         style="font-size:40.76504898px;text-align:start;text-anchor:start;fill:none;stroke:#000000;font-family:Logo;-inkscape-font-specification:Logo"
         id="path3301"
         inkscape:connector-curvature="0" />
      <path
         d="m 88.665649,536.91973 2.323607,2.32361 0.570711,-0.57071 0,-14.10471 -2.323608,-2.32361 -0.57071,0.57071 0,14.10471 m 2.853553,-0.24459 -2.282843,-2.28284 -3.261204,1.87519 -3.791149,0 -1.793662,-1.01913 -1.059892,-1.83443 0,-3.75038 1.671367,-2.89432 2.935084,-1.71213 3.750384,0 3.261204,1.91596 0.570711,-0.57071 -2.282843,-2.32361 -3.261204,-1.87519 -3.791149,0 -3.261204,1.87519 -0.570711,0.57071 -1.875192,3.2612 0,3.79115 1.875192,3.26121 2.323608,2.3236 3.261204,1.8752 3.750384,0 3.261204,-1.8752 0.570711,-0.61147"
         style="font-size:40.76504898px;text-align:start;text-anchor:start;fill:none;stroke:#000000;font-family:Logo;-inkscape-font-specification:Logo"
         id="path3303"
         inkscape:connector-curvature="0" />
      <path
         d="m 94.789323,536.87896 2.323607,2.32361 0.570711,-0.57071 0,-14.10471 -2.282843,-2.3236 -0.611475,0.57071 0,14.1047 m 14.512357,2.32361 0.57071,-0.57071 0,-8.96831 -1.87519,-3.2612 -2.32361,-2.32361 -3.2612,-1.87519 -3.791153,0 -3.261204,1.87519 -0.57071,0.57071 2.323607,2.32361 3.2612,-1.91596 3.75039,0 1.83443,1.05989 1.01912,1.79366 0,8.96831 2.32361,2.32361"
         style="font-size:40.76504898px;text-align:start;text-anchor:start;fill:none;stroke:#000000;font-family:Logo;-inkscape-font-specification:Logo"
         id="path3305"
         inkscape:connector-curvature="0" />
      <path
         d="m 128.18481,536.67514 -2.3236,-2.28284 -3.26121,1.87519 -3.75038,0 -1.83443,-1.01913 -1.01913,-1.83443 0,-3.75038 1.67137,-2.89432 2.89432,-1.71213 3.79115,0 3.2612,1.91596 0.57071,-0.57071 -2.3236,-2.32361 -3.26121,-1.87519 -3.75038,0 -3.30197,1.87519 -0.57071,0.57071 -1.87519,3.2612 0,3.79115 1.87519,3.26121 2.32361,2.3236 3.2612,1.8752 3.79115,0 3.2612,-1.8752 0.57071,-0.61147"
         style="font-size:40.76504898px;text-align:start;text-anchor:start;fill:none;stroke:#000000;font-family:Logo;-inkscape-font-specification:Logo"
         id="path3307"
         inkscape:connector-curvature="0" />
      <path
         d="m 134.26772,532.10945 13.49323,0 0.57072,-0.57071 0.0408,-1.87519 -1.87519,-3.2612 -2.32361,-2.32361 -3.2612,-1.87519 -3.79115,0 -3.26121,1.87519 -0.57071,0.57071 -1.87519,3.2612 0,3.79115 1.87519,3.26121 2.32361,2.3236 3.2612,1.8752 3.75039,0 3.2612,-1.8752 0.61148,-0.61147 -2.32361,-2.28284 -3.2612,1.87519 -3.79115,0 -1.79367,-1.01913 -1.05989,-1.83443 0,-1.30448 m 0.28536,-2.89432 1.42678,-2.4459 2.89431,-1.71213 3.75039,0 1.83443,1.05989 1.01912,1.79366 0,1.30448 -10.92503,0"
         style="font-size:40.76504898px;text-align:start;text-anchor:start;fill:none;stroke:#000000;font-family:Logo;-inkscape-font-specification:Logo"
         id="path3309"
         inkscape:connector-curvature="0" />
      <path
         d="m 167.53774,526.40235 -2.32361,-2.32361 -3.2612,-1.87519 -3.75039,0 -3.2612,1.87519 -0.61148,0.57071 0.0408,3.54656 2.28284,2.32361 7.09312,2.4459 0,1.79366 -2.69049,1.54907 -3.75039,0 -3.2612,-1.87519 -0.57071,0.57071 2.28284,2.32361 3.2612,1.87519 3.79115,0 3.26121,-1.87519 0.57071,-0.61148 0,-3.54656 -2.32361,-2.28284 -7.09312,-2.4459 0,-1.79366 2.69049,-1.58984 3.79115,0 3.26121,1.91596 0.57071,-0.57071"
         style="font-size:40.76504898px;text-align:start;text-anchor:start;fill:none;stroke:#000000;font-family:Logo;-inkscape-font-specification:Logo"
         id="path3311"
         inkscape:connector-curvature="0" />
      <path
         d="m 201.82114,536.30825 -3.79115,0 -1.79366,-1.05989 -1.05989,-1.83443 0,-3.75038 1.71213,-2.89432 2.89432,-1.71213 3.75038,0 1.83443,1.05989 1.01913,1.79366 0,3.79115 -1.67137,2.89432 -2.89432,1.71213 m 1.7529,2.89432 3.22044,-1.91596 0.61147,-0.61147 1.87519,-3.26121 0,-3.75038 -1.87519,-3.2612 -2.32361,-2.32361 -3.2612,-1.87519 -3.79115,0 -3.2612,1.87519 -0.57071,0.57071 -1.8752,3.2612 0,3.79115 1.8752,3.26121 2.3236,2.3236 3.26121,1.91596 3.79115,0"
         style="font-size:40.76504898px;text-align:start;text-anchor:start;fill:none;stroke:#000000;font-family:Logo;-inkscape-font-specification:Logo"
         id="path3313"
         inkscape:connector-curvature="0" />
      <path
         d="m 227.50885,524.48639 -2.28284,-2.28284 -0.57071,0.57071 0,14.1047 2.28284,2.28285 0.57071,-0.57071 0,-14.10471 m -14.47159,-2.28284 -0.57071,0.57071 0,8.96831 1.87519,3.2612 2.32361,2.32361 3.2612,1.87519 3.79115,0 3.2612,-1.87519 0.57071,-0.61148 -2.3236,-2.28284 -3.26121,1.87519 -3.75038,0 -1.83443,-1.01912 -1.01913,-1.83443 0,-8.96831 -2.3236,-2.28284"
         style="font-size:40.76504898px;text-align:start;text-anchor:start;fill:none;stroke:#000000;font-family:Logo;-inkscape-font-specification:Logo"
         id="path3315"
         inkscape:connector-curvature="0" />
      <path
         d="m 231.34968,522.16278 -0.57071,0.57071 6.03323,14.14547 2.3236,2.32361 0.57072,-0.57071 6.11475,-14.14547 -2.32361,-2.32361 -0.57071,0.57071 -5.0141,11.65881 -4.28033,-9.90591 -2.28284,-2.32361"
         style="font-size:40.76504898px;text-align:start;text-anchor:start;fill:none;stroke:#000000;font-family:Logo;-inkscape-font-specification:Logo"
         id="path3317"
         inkscape:connector-curvature="0" />
      <path
         d="m 251.86533,532.10945 13.49323,0 0.57071,-0.57071 0.0408,-1.87519 -1.87519,-3.2612 -2.32361,-2.32361 -3.2612,-1.87519 -3.79115,0 -3.2612,1.87519 -0.57071,0.57071 -1.8752,3.2612 0,3.79115 1.8752,3.26121 2.3236,2.3236 3.26121,1.8752 3.75038,0 3.26121,-1.8752 0.61147,-0.61147 -2.32361,-2.28284 -3.2612,1.87519 -3.79115,0 -1.79366,-1.01913 -1.05989,-1.83443 0,-1.30448 m 0.28535,-2.89432 1.42678,-2.4459 2.89432,-1.71213 3.75038,0 1.83443,1.05989 1.01912,1.79366 0,1.30448 -10.92503,0"
         style="font-size:40.76504898px;text-align:start;text-anchor:start;fill:none;stroke:#000000;font-family:Logo;-inkscape-font-specification:Logo"
         id="path3319"
         inkscape:connector-curvature="0" />
      <path
         d="m 269.19621,536.87896 2.28285,2.32361 0.61147,-0.57071 0,-14.10471 -2.3236,-2.3236 -0.57072,0.57071 0,14.1047 m 9.90591,-12.39257 -2.32361,-2.28284 -3.75038,0 -3.2612,1.87519 -0.61148,0.57071 2.32361,2.32361 3.2612,-1.91596 3.79115,0 0.57071,-0.57071"
         style="font-size:40.76504898px;text-align:start;text-anchor:start;fill:none;stroke:#000000;font-family:Logo;-inkscape-font-specification:Logo"
         id="path3321"
         inkscape:connector-curvature="0" />
      <path
         d="m 290.40487,538.63186 -2.32361,-2.32361 -1.83442,-1.05989 -1.0599,-1.79366 0,-15.20536 -2.3236,-2.32361 -0.57071,0.57071 0.0408,15.24613 1.91596,3.2612 2.32361,2.32361 3.2612,1.87519 0.57071,-0.57071 m -8.03071,-16.10219 2.28284,2.3236 3.79115,0 0.57071,-0.57071 -2.32361,-2.3236 -3.75038,0 -0.57071,0.57071"
         style="font-size:40.76504898px;text-align:start;text-anchor:start;fill:none;stroke:#000000;font-family:Logo;-inkscape-font-specification:Logo"
         id="path3323"
         inkscape:connector-curvature="0" />
      <path
         d="m 296.45212,532.10945 13.49323,0 0.57071,-0.57071 0.0408,-1.87519 -1.8752,-3.2612 -2.3236,-2.32361 -3.26121,-1.87519 -3.79115,0 -3.2612,1.87519 -0.57071,0.57071 -1.8752,3.2612 0,3.79115 1.8752,3.26121 2.3236,2.3236 3.26121,1.8752 3.75038,0 3.26121,-1.8752 0.61147,-0.61147 -2.3236,-2.28284 -3.26121,1.87519 -3.79115,0 -1.79366,-1.01913 -1.05989,-1.83443 0,-1.30448 m 0.28535,-2.89432 1.42678,-2.4459 2.89432,-1.71213 3.75038,0 1.83443,1.05989 1.01913,1.79366 0,1.30448 -10.92504,0"
         style="font-size:40.76504898px;text-align:start;text-anchor:start;fill:none;stroke:#000000;font-family:Logo;-inkscape-font-specification:Logo"
         id="path3325"
         inkscape:connector-curvature="0" />
      <path
         d="m 329.72211,526.40235 -2.32361,-2.32361 -3.2612,-1.87519 -3.75039,0 -3.2612,1.87519 -0.61148,0.57071 0.0408,3.54656 2.28284,2.32361 7.09312,2.4459 0,1.79366 -2.69049,1.54907 -3.75039,0 -3.2612,-1.87519 -0.57071,0.57071 2.28284,2.32361 3.26121,1.87519 3.79114,0 3.26121,-1.87519 0.57071,-0.61148 0,-3.54656 -2.32361,-2.28284 -7.09312,-2.4459 0,-1.79366 2.6905,-1.58984 3.79115,0 3.2612,1.91596 0.57071,-0.57071"
         style="font-size:40.76504898px;text-align:start;text-anchor:start;fill:none;stroke:#000000;font-family:Logo;-inkscape-font-specification:Logo"
         id="path3327"
         inkscape:connector-curvature="0" />
      <path
         d="m 47.12224,590.11814 3.261204,-1.8752 0.570711,-0.61147 1.875192,-3.26121 0,-3.75038 -1.875192,-3.2612 -2.323608,-2.32361 -3.261204,-1.87519 -3.750384,0 -3.261204,1.87519 -0.611476,0.57071 -1.875192,3.2612 0,3.79115 1.875192,3.26121 2.323608,2.3236 3.261204,1.8752 3.791149,0 m -1.752897,-2.89432 -3.750384,0 -1.834427,-1.01913 -1.019127,-1.83443 0,-3.75038 1.671367,-2.89432 2.894319,-1.71213 3.791149,0 1.793663,1.05989 1.059891,1.79366 0,3.79115 -1.712132,2.89432 -2.894319,1.67137"
         style="font-size:40.76504898px;text-align:start;text-anchor:start;fill:none;stroke:#000000;font-family:Logo;-inkscape-font-specification:Logo"
         id="path3329"
         inkscape:connector-curvature="0" />
      <path
         d="m 60.213554,598.18962 2.323608,2.28284 0.570711,-0.57071 -2.323608,-2.28285 -0.570711,0.57072 m 5.136396,-8.03072 -5.136396,8.03072 2.323608,2.28284 0.570711,-0.57071 9.905907,-15.49072 0,-3.75039 -1.875193,-3.2612 -2.323607,-2.32361 -3.261204,-1.87519 -3.750385,0 -3.301969,1.87519 -0.570711,0.57071 -1.875192,3.26121 0,3.79115 1.875192,3.2612 2.323608,2.32361 3.261204,1.87519 1.834427,0 m 2.975849,-4.64721 -2.772023,1.75289 -3.750385,0 -1.834427,-1.01912 -1.019126,-1.83443 0,-3.75039 1.671367,-2.89431 2.894318,-1.71214 3.79115,0 1.793662,1.0599 1.019126,1.79366 0,3.79115 -1.793662,2.81279"
         style="font-size:40.76504898px;text-align:start;text-anchor:start;fill:none;stroke:#000000;font-family:Logo;-inkscape-font-specification:Logo"
         id="path3331"
         inkscape:connector-curvature="0" />
      <path
         d="m 78.401133,583.59573 -0.570711,0.57071 0,3.79115 2.323608,2.28284 0.570711,-0.57071 0,-3.75038 -2.323608,-2.32361"
         style="font-size:40.76504898px;text-align:start;text-anchor:start;fill:none;stroke:#000000;font-family:Logo;-inkscape-font-specification:Logo"
         id="path3333"
         inkscape:connector-curvature="0" />
      <path
         d="m 95.21226,590.11814 3.261204,-1.8752 0.57071,-0.61147 1.875196,-3.26121 0,-3.75038 -1.875196,-3.2612 -2.323608,-2.32361 -3.261203,-1.87519 -3.750385,0 -3.261204,1.87519 -0.611476,0.57071 -1.875192,3.2612 0,3.79115 1.875192,3.26121 2.323608,2.3236 3.261204,1.8752 3.79115,0 m -1.752897,-2.89432 -3.750385,0 -1.834427,-1.01913 -1.019126,-1.83443 0,-3.75038 1.671367,-2.89432 2.894318,-1.71213 3.79115,0 1.793662,1.05989 1.059891,1.79366 0,3.79115 -1.712132,2.89432 -2.894318,1.67137"
         style="font-size:40.76504898px;text-align:start;text-anchor:start;fill:none;stroke:#000000;font-family:Logo;-inkscape-font-specification:Logo"
         id="path3335"
         inkscape:connector-curvature="0" />
      <path
         d="m 104.10478,576.99179 2.3236,2.32361 3.3835,-1.95672 0,10.51738 2.32361,2.32361 0.57071,-0.57071 -0.0408,-14.18624 -2.28285,-2.32361 -5.7071,3.30197 -0.57071,0.57071"
         style="font-size:40.76504898px;text-align:start;text-anchor:start;fill:none;stroke:#000000;font-family:Logo;-inkscape-font-specification:Logo"
         id="path3337"
         inkscape:connector-curvature="0" />
      <path
         d="m 116.45913,583.59573 -0.57071,0.57071 0,3.79115 2.32361,2.28284 0.57071,-0.57071 0,-3.75038 -2.32361,-2.32361"
         style="font-size:40.76504898px;text-align:start;text-anchor:start;fill:none;stroke:#000000;font-family:Logo;-inkscape-font-specification:Logo"
         id="path3339"
         inkscape:connector-curvature="0" />
      <path
         d="m 122.0191,576.99179 2.3236,2.32361 3.3835,-1.95672 0,10.51738 2.32361,2.32361 0.57071,-0.57071 -0.0408,-14.18624 -2.28285,-2.32361 -5.7071,3.30197 -0.57071,0.57071"
         style="font-size:40.76504898px;text-align:start;text-anchor:start;fill:none;stroke:#000000;font-family:Logo;-inkscape-font-specification:Logo"
         id="path3341"
         inkscape:connector-curvature="0" />
      <path
         d="m 133.80274,573.73059 2.32361,2.3236 7.09312,0 -5.09563,8.15301 2.28284,2.32361 3.79115,0 1.79366,1.01913 1.01913,1.83443 0,3.75038 -1.67137,2.89432 -2.89432,1.71213 -0.57071,0.57071 2.32361,2.28284 3.2612,-1.87519 0.57071,-0.57071 1.8752,-3.2612 0,-3.79115 -1.8752,-3.26121 -2.3236,-2.3236 -3.26121,-1.8752 5.09563,-8.19377 -2.3236,-2.28284 -10.84351,0 -0.57071,0.57071 m 1.01913,22.66536 2.32361,2.32361 3.2612,1.87519 3.79115,0 0.57071,-0.57071 -2.32361,-2.28284 -3.75038,0 -3.26121,-1.91596 -0.61147,0.57071"
         style="font-size:40.76504898px;text-align:start;text-anchor:start;fill:none;stroke:#000000;font-family:Logo;-inkscape-font-specification:Logo"
         id="path3343"
         inkscape:connector-curvature="0" />
      <path
         d="m 178.24557,583.06578 -2.32361,-2.28284 -7.94919,0.0408 -0.57071,0.57072 2.32361,2.28284 7.94918,-0.0408 0.57072,-0.57071"
         style="font-size:40.76504898px;text-align:start;text-anchor:start;fill:none;stroke:#000000;font-family:Logo;-inkscape-font-specification:Logo"
         id="path3345"
         inkscape:connector-curvature="0" />
      <path
         d="m 198.53318,576.99179 2.32361,2.32361 3.3835,-1.95672 0,10.51738 2.32361,2.32361 0.57071,-0.57071 -0.0408,-14.18624 -2.28284,-2.32361 -5.70711,3.30197 -0.57071,0.57071"
         style="font-size:40.76504898px;text-align:start;text-anchor:start;fill:none;stroke:#000000;font-family:Logo;-inkscape-font-specification:Logo"
         id="path3347"
         inkscape:connector-curvature="0" />
      <path
         d="m 210.31683,576.99179 2.3236,2.32361 3.3835,-1.95672 0,10.51738 2.32361,2.32361 0.57071,-0.57071 -0.0408,-14.18624 -2.28285,-2.32361 -5.7071,3.30197 -0.57071,0.57071"
         style="font-size:40.76504898px;text-align:start;text-anchor:start;fill:none;stroke:#000000;font-family:Logo;-inkscape-font-specification:Logo"
         id="path3349"
         inkscape:connector-curvature="0" />
      <path
         d="m 222.6712,583.59573 -0.57071,0.57071 0,3.79115 2.32361,2.28284 0.57071,-0.57071 0,-3.75038 -2.32361,-2.32361"
         style="font-size:40.76504898px;text-align:start;text-anchor:start;fill:none;stroke:#000000;font-family:Logo;-inkscape-font-specification:Logo"
         id="path3351"
         inkscape:connector-curvature="0" />
      <path
         d="m 239.48232,590.11814 3.2612,-1.8752 0.57071,-0.61147 1.87519,-3.26121 0,-3.75038 -1.87519,-3.2612 -2.32361,-2.32361 -3.2612,-1.87519 -3.75038,0 -3.26121,1.87519 -0.61147,0.57071 -1.8752,3.2612 0,3.79115 1.8752,3.26121 2.3236,2.3236 3.26121,1.8752 3.79115,0 m -1.7529,-2.89432 -3.75038,0 -1.83443,-1.01913 -1.01913,-1.83443 0,-3.75038 1.67137,-2.89432 2.89432,-1.71213 3.79115,0 1.79366,1.05989 1.05989,1.79366 0,3.79115 -1.71213,2.89432 -2.89432,1.67137"
         style="font-size:40.76504898px;text-align:start;text-anchor:start;fill:none;stroke:#000000;font-family:Logo;-inkscape-font-specification:Logo"
         id="path3353"
         inkscape:connector-curvature="0" />
      <path
         d="m 248.37483,576.99179 2.3236,2.32361 3.3835,-1.95672 0,10.51738 2.32361,2.32361 0.57071,-0.57071 -0.0408,-14.18624 -2.28285,-2.32361 -5.7071,3.30197 -0.57071,0.57071"
         style="font-size:40.76504898px;text-align:start;text-anchor:start;fill:none;stroke:#000000;font-family:Logo;-inkscape-font-specification:Logo"
         id="path3355"
         inkscape:connector-curvature="0" />
      <path
         d="m 260.72918,583.59573 -0.57071,0.57071 0,3.79115 2.32361,2.28284 0.57071,-0.57071 0,-3.75038 -2.32361,-2.32361"
         style="font-size:40.76504898px;text-align:start;text-anchor:start;fill:none;stroke:#000000;font-family:Logo;-inkscape-font-specification:Logo"
         id="path3357"
         inkscape:connector-curvature="0" />
      <path
         d="m 266.28916,576.99179 2.32361,2.32361 3.3835,-1.95672 0,10.51738 2.32361,2.32361 0.57071,-0.57071 -0.0408,-14.18624 -2.28284,-2.32361 -5.70711,3.30197 -0.57071,0.57071"
         style="font-size:40.76504898px;text-align:start;text-anchor:start;fill:none;stroke:#000000;font-family:Logo;-inkscape-font-specification:Logo"
         id="path3359"
         inkscape:connector-curvature="0" />
      <path
         d="m 278.07281,573.73059 2.32361,2.3236 7.09311,0 -5.09563,8.15301 2.28285,2.32361 3.79115,0 1.79366,1.01913 1.01912,1.83443 0,3.75038 -1.67136,2.89432 -2.89432,1.71213 -0.57071,0.57071 2.32361,2.28284 3.2612,-1.87519 0.57071,-0.57071 1.87519,-3.2612 0,-3.79115 -1.87519,-3.26121 -2.32361,-2.3236 -3.2612,-1.8752 5.09563,-8.19377 -2.32361,-2.28284 -10.8435,0 -0.57071,0.57071 m 1.01912,22.66536 2.32361,2.32361 3.26121,1.87519 3.79115,0 0.57071,-0.57071 -2.32361,-2.28284 -3.75039,0 -3.2612,-1.91596 -0.61148,0.57071"
         style="font-size:40.76504898px;text-align:start;text-anchor:start;fill:none;stroke:#000000;font-family:Logo;-inkscape-font-specification:Logo"
         id="path3361"
         inkscape:connector-curvature="0" />
    </g>
  </g>
</svg>
